# xmcd
#
# Track frame offsets:
#	180
#	12913
#	27187
#	39715
#	56854
#	68583
#	79457
#	98992
#	108743
#	125674
#	142986
#	160698
#	171921
#	194630
#	207030
#	223210
#	240150
#	248820
#	267568
#	277295
#
# Disc length: 3802 seconds
#
# Revision: 0
# Processed by: cddbd v1.5.2PL0 Copyright (c) Steve Scherf et al.
# Submitted via: EasyCDDAExtractor 10.2.0.1
#
DISCID=330ed814
DTITLE=The Carolina Crossmen - Solid Southern
DYEAR=1900
DGENRE=Gospel
TTITLE0=He Had To Come Down
TTITLE1=Well Done My Child
TTITLE2=To The Feet Of Jesus
TTITLE3=When I Think Of You
TTITLE4=Step On Over
TTITLE5=I Know Ive Been Redeemed
TTITLE6=Harvest Time
TTITLE7=High Sheriff of heaven
TTITLE8=Safe In His Arms
TTITLE9=I've Got a Home
TTITLE10=The Right Side Of Calvary
TTITLE11=I Believe In The Old Time Way
TTITLE12=Eternity Has Begun
TTITLE13=Born Again, Blood Bought Christian
TTITLE14=Oh, What A Savior
TTITLE15=There's His Blood
TTITLE16=I Know God's Here
TTITLE17=Earth's Loss, Heaven's Gain
TTITLE18=When My Time Comes To Go
TTITLE19=The Grave Can't Hold Me
EXTD=
EXTT0=
EXTT1=
EXTT2=
EXTT3=
EXTT4=
EXTT5=
EXTT6=
EXTT7=
EXTT8=
EXTT9=
EXTT10=
EXTT11=
EXTT12=
EXTT13=
EXTT14=
EXTT15=
EXTT16=
EXTT17=
EXTT18=
EXTT19=
PLAYORDER=
